<svg width="153" height="120" viewBox="0 0 153 120" fill="none" xmlns="http://www.w3.org/2000/svg">
<circle cx="74.5" cy="60" r="58.5" stroke="#F5F4F4" stroke-width="3"/>
<path d="M0 65.0258H60.937L75.404 32C80.3725 51.6461 90.3971 90.3287 90.7479 87.8899C91.0986 85.4511 94.6934 71.631 96.447 65.0258H153" stroke="#F5F4F4" stroke-width="3"/>
<path d="M102 55C102 57.1606 100.139 59 97.7322 59C95.3253 59 93.4643 57.1606 93.4643 55C93.4643 52.8394 95.3253 51 97.7322 51C100.139 51 102 52.8394 102 55Z" stroke="#F5F4F4" stroke-width="2"/>
<circle cx="75" cy="20" r="4.5" stroke="#F5F4F4"/>
<path d="M53.5357 55C53.5357 57.1606 51.6747 59 49.2679 59C46.861 59 45 57.1606 45 55C45 52.8394 46.861 51 49.2679 51C51.6747 51 53.5357 52.8394 53.5357 55Z" stroke="#F5F4F4" stroke-width="2"/>
<circle cx="91" cy="97" r="4.5" stroke="#F5F4F4"/>
</svg>
