<svg width="184" height="146" viewBox="0 0 184 146" fill="none" xmlns="http://www.w3.org/2000/svg">
<path fill-rule="evenodd" clip-rule="evenodd" d="M65.1284 10.1441C61.4327 8.76595 57.5074 8 53.5052 8C33.902 8 15 24.5003 15 42.1322C15 59.7641 33.902 77 53.5052 77C57.6038 77 61.54 76.2466 65.2028 74.8937C60.8228 72.6734 56.9496 69.6363 53.7964 65.9898C53.5319 65.9966 53.2664 66 53 66C38.0883 66 26 55.2548 26 42C26 28.7452 38.0883 18 53 18C53.5579 18 54.1118 18.015 54.6613 18.0447C57.6293 14.8459 61.1709 12.1612 65.1284 10.1441Z" fill="#288FF5"/>
<path d="M50.4008 40C50.4008 40 55.4652 31 53.5791 31H8.62872C7.2141 31 8.62872 40 8.62872 40H50.4008Z" fill="#288FF5"/>
<path d="M50.4008 54C50.4008 54 55.4652 45 53.5791 45H8.62872C7.2141 45 8.62872 54 8.62872 54H50.4008Z" fill="#288FF5"/>
<path d="M157.515 145H128.077V62.7543C128.077 62.7543 126.047 57.1835 142.796 47.156C152.163 41.5479 155.974 36.4468 157.336 33.5357C157.387 32.4306 157.446 31.7489 157.515 31.5576C157.962 30.3077 158.409 31.2416 157.336 33.5357C156.632 48.8128 157.515 145 157.515 145Z" fill="#288FF5"/>
<path d="M157.515 145H128.077V62.7543C128.077 62.7543 126.047 57.1835 142.796 47.156C159.545 37.1284 158.53 28.7216 157.515 31.5576C156.5 34.3937 157.515 145 157.515 145Z" stroke="#288FF5"/>
<path d="M115.515 145H86.0773V87.2837C86.0773 87.2837 84.0471 83.3744 100.796 76.3375C110.163 72.4021 113.974 68.8223 115.336 66.7795C115.387 66.004 115.446 65.5256 115.515 65.3913C115.962 64.5141 116.409 65.1696 115.336 66.7795C114.632 77.5002 115.515 145 115.515 145Z" fill="#288FF5"/>
<path d="M115.515 145H86.0773V87.2837C86.0773 87.2837 84.0471 83.3744 100.796 76.3375C117.545 69.3007 116.53 63.4011 115.515 65.3913C114.5 67.3815 115.515 145 115.515 145Z" stroke="#288FF5"/>
<path d="M79.5147 145H50.0773V106.763C50.0773 106.763 48.0471 104.173 64.796 99.5111C74.163 96.9039 77.9739 94.5323 79.336 93.1789C79.387 92.6651 79.4462 92.3482 79.5147 92.2592C79.9621 91.6781 80.4095 92.1123 79.336 93.1789C78.6319 100.281 79.5147 145 79.5147 145Z" fill="#288FF5"/>
<path d="M79.5147 145H50.0773V106.763C50.0773 106.763 48.0471 104.173 64.796 99.5111C81.5449 94.8492 80.5298 90.9407 79.5147 92.2592C78.4996 93.5778 79.5147 145 79.5147 145Z" stroke="#288FF5"/>
<path d="M37.5147 145H8.0773V122.635C8.0773 122.635 6.04711 121.12 22.796 118.393C32.163 116.868 35.9739 115.481 37.336 114.69C37.387 114.389 37.4462 114.204 37.5147 114.152C37.9621 113.812 38.4095 114.066 37.336 114.69C36.6319 118.844 37.5147 145 37.5147 145Z" fill="#288FF5"/>
<path d="M37.5147 145H8.0773V122.635C8.0773 122.635 6.04711 121.12 22.796 118.393C39.5449 115.667 38.5298 113.38 37.5147 114.152C36.4996 114.923 37.5147 145 37.5147 145Z" stroke="#288FF5"/>
<path d="M173.203 15.2334C173.258 13.8538 172.184 12.6907 170.805 12.6356L148.323 11.7373C146.943 11.6822 145.78 12.7559 145.725 14.1355C145.67 15.5152 146.743 16.6782 148.123 16.7334L168.107 17.5318L167.309 37.5158C167.253 38.8954 168.327 40.0585 169.707 40.1136C171.086 40.1688 172.25 39.0951 172.305 37.7154L173.203 15.2334ZM8.75036 117.125C51.7517 102.939 92.6708 77.8738 122.782 56.4229C137.851 45.6874 150.244 35.8349 158.873 28.6631C163.188 25.0768 166.563 22.1598 168.863 20.1364C170.013 19.1247 170.894 18.3363 171.489 17.7993C171.787 17.5308 172.013 17.3252 172.166 17.1859C172.242 17.1162 172.3 17.0632 172.339 17.0271C172.359 17.0091 172.374 16.9953 172.384 16.9859C172.389 16.9812 172.393 16.9775 172.396 16.9749C172.397 16.9737 172.398 16.9726 172.399 16.9719C172.4 16.9711 172.401 16.9705 170.705 15.1336C169.009 13.2966 169.009 13.2966 169.009 13.2969C169.008 13.2973 169.008 13.2979 169.007 13.2987C169.005 13.3005 169.002 13.3034 168.997 13.3073C168.989 13.3152 168.976 13.3274 168.958 13.3438C168.922 13.3767 168.868 13.4266 168.795 13.493C168.649 13.6259 168.43 13.825 168.14 14.0868C167.559 14.6105 166.694 15.3851 165.56 16.3826C163.293 18.3777 159.953 21.264 155.677 24.8178C147.124 31.9262 134.83 41.7003 119.88 52.3506C89.9522 73.6715 49.5024 98.4155 7.18384 112.377L8.75036 117.125Z" fill="#288FF5"/>
</svg>
