<svg width="161" height="161" viewBox="0 0 161 161" fill="none" xmlns="http://www.w3.org/2000/svg">
<path fill-rule="evenodd" clip-rule="evenodd" d="M75.5715 2.1008C71.8617 0.750467 67.9214 0 63.904 0C44.2259 0 25.2517 16.1669 25.2517 33.4425C25.2517 50.718 44.2259 67.6056 63.904 67.6056C68.0181 67.6056 71.9694 66.8674 75.6462 65.5419C71.2494 63.3665 67.3614 60.3907 64.1962 56.8179C63.9307 56.8246 63.6642 56.8279 63.3968 56.8279C48.4282 56.8279 36.2937 46.2999 36.2937 33.3129C36.2937 20.3259 48.4282 9.79791 63.3968 9.79791C63.9568 9.79791 64.5129 9.81265 65.0645 9.8417C68.0437 6.7076 71.5989 4.0771 75.5715 2.1008Z" fill="#288FF5"/>
<path d="M60.7877 31.3533C60.7877 31.3533 65.8714 22.5352 63.9781 22.5352H18.8561C17.436 22.5352 18.8561 31.3533 18.8561 31.3533H60.7877Z" fill="#288FF5"/>
<path d="M60.7877 45.0704C60.7877 45.0704 65.8714 36.2523 63.9781 36.2523H18.8561C17.436 36.2523 18.8561 45.0704 18.8561 45.0704H60.7877Z" fill="#288FF5"/>
<path d="M145.044 160H116.872V67.3288C116.872 67.3288 114.929 61.0518 130.958 49.7532C139.923 43.4343 143.57 37.6865 144.873 34.4065C144.922 33.1613 144.979 32.3932 145.044 32.1776C145.472 30.7692 145.9 31.8216 144.873 34.4065C144.199 51.62 145.044 160 145.044 160Z" fill="#288FF5"/>
<path d="M145.044 160H116.872V67.3288C116.872 67.3288 114.929 61.0518 130.958 49.7532C146.987 38.4546 146.016 28.982 145.044 32.1776C144.073 35.3732 145.044 160 145.044 160Z" stroke="#288FF5"/>
<path d="M104.849 160H76.6771V94.9676C76.6771 94.9676 74.7342 90.5627 90.7632 82.6338C99.7277 78.1995 103.375 74.166 104.678 71.8642C104.727 70.9904 104.784 70.4513 104.849 70.3001C105.277 69.3117 105.706 70.0502 104.678 71.8642C104.004 83.9439 104.849 160 104.849 160Z" fill="#288FF5"/>
<path d="M104.849 160H76.6771V94.9676C76.6771 94.9676 74.7342 90.5627 90.7632 82.6338C106.792 74.705 105.821 68.0576 104.849 70.3001C103.878 72.5426 104.849 160 104.849 160Z" stroke="#288FF5"/>
<path d="M70.3966 160H42.2244V116.916C42.2244 116.916 40.2815 113.998 56.3105 108.745C65.2749 105.807 68.9221 103.135 70.2256 101.61C70.2744 101.031 70.3311 100.674 70.3966 100.574C70.8248 99.919 71.2529 100.408 70.2256 101.61C69.5518 109.613 70.3966 160 70.3966 160Z" fill="#288FF5"/>
<path d="M70.3966 160H42.2244V116.916C42.2244 116.916 40.2815 113.998 56.3105 108.745C72.3395 103.492 71.3681 99.0881 70.3966 100.574C69.4251 102.059 70.3966 160 70.3966 160Z" stroke="#288FF5"/>
<path d="M30.2017 160H2.02958V134.8C2.02958 134.8 0.0866501 133.093 16.1157 130.021C25.0801 128.302 28.7272 126.739 30.0308 125.847C30.0795 125.509 30.1362 125.3 30.2017 125.241C30.6299 124.858 31.0581 125.144 30.0308 125.847C29.3569 130.528 30.2017 160 30.2017 160Z" fill="#288FF5"/>
<path d="M30.2017 160H2.02958V134.8C2.02958 134.8 0.0866501 133.093 16.1157 130.021C32.1447 126.948 31.1732 124.372 30.2017 125.241C29.2303 126.11 30.2017 160 30.2017 160Z" stroke="#288FF5"/>
<path d="M159.037 9.14756C159.112 7.67932 158.13 6.49672 156.845 6.50613L135.904 6.65957C134.619 6.66899 133.517 7.86686 133.442 9.3351C133.368 10.8033 134.349 11.9859 135.634 11.9765L154.249 11.8401L153.17 33.1079C153.096 34.5762 154.077 35.7588 155.362 35.7494C156.647 35.7399 157.75 34.5421 157.824 33.0738L159.037 9.14756ZM1.589 123.921C42.7613 107.929 81.9364 79.6751 110.759 55.4998C125.185 43.4003 137.048 32.296 145.309 24.213C149.439 20.171 152.671 16.8831 154.872 14.6022C155.973 13.4618 156.817 12.573 157.387 11.9675C157.672 11.6648 157.889 11.4329 158.035 11.2757C158.108 11.1971 158.164 11.1372 158.201 11.0965C158.22 11.0761 158.234 11.0606 158.244 11.0499C158.249 11.0445 158.253 11.0404 158.256 11.0375C158.257 11.036 158.258 11.0347 158.259 11.034C158.26 11.033 158.26 11.0324 156.71 9.16461C155.16 7.29684 155.16 7.2968 155.16 7.29706C155.16 7.29756 155.159 7.29813 155.158 7.29912C155.156 7.3011 155.154 7.30431 155.149 7.30872C155.141 7.31756 155.129 7.33124 155.112 7.34971C155.077 7.38664 155.025 7.44273 154.956 7.51748C154.817 7.66698 154.607 7.8911 154.33 8.18591C153.775 8.77553 152.947 9.64784 151.862 10.7713C149.693 13.0183 146.498 16.2695 142.407 20.2726C134.224 28.2799 122.462 39.2901 108.158 51.2873C79.5224 75.3056 40.8258 103.175 0.345199 118.899L1.589 123.921Z" fill="#288FF5"/>
</svg>
