<svg width="162" height="162" viewBox="0 0 162 162" fill="none" xmlns="http://www.w3.org/2000/svg">
<path d="M3.64717 160.769H37.0659V59.5437C37.0659 59.5437 39.3707 52.6873 20.3565 40.3458C9.72263 33.4436 5.39631 27.1653 3.84998 23.5824C3.79216 22.2223 3.72491 21.3833 3.64717 21.1478C3.13926 19.6094 2.63137 20.7589 3.84998 23.5824C4.64934 42.3849 3.64717 160.769 3.64717 160.769Z" fill="#FF118E"/>
<path d="M48.025 162H81.4438V97.1801C81.4438 97.1801 83.7485 92.7896 64.7344 84.8867C54.1005 80.4669 49.7742 76.4466 48.2278 74.1523C48.17 73.2813 48.1028 72.7441 48.025 72.5933C47.5171 71.6082 47.0092 72.3442 48.2278 74.1523C49.0272 86.1925 48.025 162 48.025 162Z" fill="#FF118E"/>
<path d="M94.467 162H127.886V131.81C127.886 131.81 130.191 129.765 111.176 126.084C100.542 124.026 96.2162 122.153 94.6698 121.085C94.612 120.679 94.5448 120.429 94.467 120.359C93.9591 119.9 93.4512 120.243 94.6698 121.085C95.4692 126.692 94.467 162 94.467 162Z" fill="#FF118E"/>
<path d="M160.47 124.166C161.529 123.422 161.812 121.783 161.103 120.504L149.538 99.6695C148.829 98.391 147.395 97.9573 146.336 98.7009C145.277 99.4445 144.994 101.084 145.703 102.362L155.983 120.882L140.642 131.653C139.583 132.397 139.3 134.036 140.01 135.315C140.72 136.593 142.153 137.027 143.212 136.283L160.47 124.166ZM6.85332 3.11904C23.6576 40.4281 58.5534 69.7598 90.4945 90.1667C122.499 110.614 152.041 122.414 158.738 124.44L159.633 119.262C153.363 117.366 124.2 105.753 92.5194 85.5125C60.7748 65.231 27.0037 36.5982 10.9164 0.880965L6.85332 3.11904Z" fill="#FF118E"/>
</svg>
