<svg width="170" height="140" viewBox="0 0 170 140" fill="none" xmlns="http://www.w3.org/2000/svg">
<path d="M9.53392 139H41.9151V56.7542C41.9151 56.7542 44.1483 51.1834 25.7245 41.1559C15.4208 35.5479 11.2288 30.4468 9.73044 27.5357C9.67441 26.4306 9.60925 25.7489 9.53392 25.5576C9.04179 24.3076 8.54966 25.2416 9.73044 27.5357C10.505 42.8127 9.53392 139 9.53392 139Z" fill="#FF118E"/>
<path d="M52.5339 140H84.915V87.3338C84.915 87.3338 87.1482 83.7666 68.7245 77.3454C58.4207 73.7543 54.2287 70.4878 52.7304 68.6237C52.6744 67.9161 52.6092 67.4795 52.5339 67.357C52.0418 66.5566 51.5496 67.1547 52.7304 68.6237C53.505 78.4064 52.5339 140 52.5339 140Z" fill="#FF118E"/>
<path d="M97.5339 140H129.915V115.471C129.915 115.471 132.148 113.809 113.725 110.818C103.421 109.146 99.2288 107.624 97.7305 106.756C97.6744 106.427 97.6093 106.223 97.5339 106.166C97.0418 105.793 96.5497 106.072 97.7305 106.756C98.505 111.313 97.5339 140 97.5339 140Z" fill="#FF118E"/>
<path d="M161.522 109.527C162.708 108.82 163.097 107.286 162.391 106.1L150.88 86.7669C150.174 85.5806 148.64 85.1914 147.453 85.8978C146.267 86.6041 145.878 88.1385 146.584 89.3248L156.816 106.51L139.631 116.741C138.445 117.447 138.055 118.982 138.762 120.168C139.468 121.354 141.002 121.744 142.189 121.037L161.522 109.527ZM12.4066 11.183C28.7074 41.5307 62.5388 65.3693 93.4852 81.9483C124.5 98.5639 153.13 108.154 159.628 109.802L160.857 104.955C154.792 103.417 126.54 93.9847 95.8464 77.541C65.0844 61.0607 32.3809 37.8032 16.8114 8.81702L12.4066 11.183Z" fill="#FF118E"/>
</svg>
